<svg width="13" height="12" viewBox="0 0 13 12" fill="none" xmlns="http://www.w3.org/2000/svg">
<path d="M6.50065 1C3.50523 1 1.08398 3.235 1.08398 6C1.08398 8.765 3.50523 11 6.50065 11C9.49607 11 11.9173 8.765 11.9173 6C11.9173 3.235 9.49607 1 6.50065 1ZM6.50065 10C4.1119 10 2.16732 8.205 2.16732 6C2.16732 3.795 4.1119 2 6.50065 2C8.8894 2 10.834 3.795 10.834 6C10.834 8.205 8.8894 10 6.50065 10ZM8.44523 3.5L6.50065 5.295L4.55607 3.5L3.79232 4.205L5.7369 6L3.79232 7.795L4.55607 8.5L6.50065 6.705L8.44523 8.5L9.20898 7.795L7.2644 6L9.20898 4.205L8.44523 3.5Z" fill="#FF736A"/>
</svg>
