<svg width="13" height="13" viewBox="0 0 13 13" fill="none" xmlns="http://www.w3.org/2000/svg">
<path d="M6.50065 1.0835C3.51065 1.0835 1.08398 3.51016 1.08398 6.50016C1.08398 9.49016 3.51065 11.9168 6.50065 11.9168C9.49065 11.9168 11.9173 9.49016 11.9173 6.50016C11.9173 3.51016 9.49065 1.0835 6.50065 1.0835ZM6.50065 10.8335C4.1119 10.8335 2.16732 8.88891 2.16732 6.50016C2.16732 4.11141 4.1119 2.16683 6.50065 2.16683C8.8894 2.16683 10.834 4.11141 10.834 6.50016C10.834 8.88891 8.8894 10.8335 6.50065 10.8335ZM8.9869 4.106L5.41732 7.67558L4.0144 6.27808L3.25065 7.04183L5.41732 9.2085L9.75065 4.87516L8.9869 4.106Z" fill="#168736"/>
</svg>
