<svg width="15" height="16" viewBox="0 0 15 16" fill="none" xmlns="http://www.w3.org/2000/svg">
<path d="M8.25 0.537109V2.80961C10.7925 3.17711 12.75 5.35211 12.75 7.99961C12.75 8.67461 12.615 9.31211 12.39 9.90461L14.34 11.0521C14.76 10.1221 15 9.08711 15 7.99961C15 4.11461 12.0375 0.912109 8.25 0.537109ZM7.5 13.2496C4.5975 13.2496 2.25 10.9021 2.25 7.99961C2.25 5.35211 4.2075 3.17711 6.75 2.80961V0.537109C2.955 0.912109 0 4.10711 0 7.99961C0 12.1396 3.3525 15.4996 7.4925 15.4996C9.975 15.4996 12.1725 14.2921 13.5375 12.4321L11.5875 11.2846C10.6275 12.4846 9.1575 13.2496 7.5 13.2496Z" fill="#2E2E38"/>
</svg>
